<svg width="800" height="800" viewBox="0 0 800 800" fill="none" xmlns="http://www.w3.org/2000/svg">
<path d="M714.667 566.667H519.667C510.826 566.667 502.348 563.155 496.096 556.904C489.845 550.652 486.333 542.174 486.333 533.333C486.333 524.493 489.845 516.014 496.096 509.763C502.348 503.512 510.826 500 519.667 500H677C657 427.333 571 400 510.333 400C449.667 400 364.667 427.333 343.667 500H385C393.841 500 402.319 503.512 408.57 509.763C414.821 516.014 418.333 524.493 418.333 533.333C418.333 542.174 414.821 550.652 408.57 556.904C402.319 563.155 393.841 566.667 385 566.667H307.333C298.493 566.667 290.014 563.155 283.763 556.904C277.512 550.652 274 542.174 274 533.333C274 402 393.333 333.333 511 333.333C628.667 333.333 748 402 748 533.333C748 542.174 744.488 550.652 738.237 556.904C731.986 563.155 723.507 566.667 714.667 566.667Z" fill="white"/>
<path d="M603.667 733.333H418.667C380.356 733.333 343.61 718.138 316.49 691.079C289.369 664.021 274.088 627.31 274 589V514.667C274 505.826 277.512 497.348 283.763 491.096C290.014 484.845 298.493 481.333 307.333 481.333C316.174 481.333 324.652 484.845 330.904 491.096C337.155 497.348 340.667 505.826 340.667 514.667V589C340.755 609.629 349.012 629.383 363.63 643.939C378.248 658.495 398.037 666.667 418.667 666.667H603.667C617.208 666.513 630.477 662.836 642.166 655.998C653.855 649.159 663.563 639.395 670.333 627.667C674.754 619.975 682.048 614.355 690.612 612.042C699.176 609.729 708.309 610.913 716 615.333C723.691 619.754 729.312 627.048 731.625 635.612C733.937 644.176 732.754 653.309 728.333 661C715.613 682.834 697.43 700.984 675.573 713.666C653.716 726.348 628.936 733.126 603.667 733.333Z" fill="white"/>
<path d="M400 733.333H166.667C158.528 733.402 150.645 730.491 144.505 725.149C138.365 719.807 134.391 712.403 133.333 704.333L66.6666 204.333C66.0484 199.627 66.4424 194.844 67.822 190.302C69.2017 185.761 71.5352 181.567 74.6666 178C77.8273 174.402 81.7261 171.527 86.0977 169.571C90.4693 167.616 95.211 166.625 100 166.667H466.667C471.456 166.625 476.197 167.616 480.569 169.571C484.94 171.527 488.839 174.402 492 178C495.118 181.633 497.417 185.896 498.74 190.498C500.063 195.099 500.379 199.932 499.667 204.667L490 271.333C489.426 275.696 487.994 279.903 485.787 283.709C483.579 287.516 480.64 290.848 477.138 293.513C473.637 296.178 469.642 298.124 465.384 299.237C461.127 300.35 456.691 300.61 452.333 300C443.582 298.761 435.681 294.097 430.367 287.033C425.054 279.97 422.764 271.085 424 262.333L428.333 233.333H138L196 666.667H400C408.841 666.667 417.319 670.179 423.57 676.43C429.821 682.681 433.333 691.159 433.333 700C433.333 708.841 429.821 717.319 423.57 723.57C417.319 729.821 408.841 733.333 400 733.333Z" fill="white"/>
<path d="M300 233.333C291.159 233.333 282.681 229.822 276.43 223.57C270.179 217.319 266.667 208.841 266.667 200V113.667L243 90.3334C239.892 87.2255 237.427 83.5358 235.745 79.475C234.063 75.4143 233.197 71.062 233.197 66.6667C233.197 62.2714 234.063 57.9192 235.745 53.8584C237.427 49.7977 239.892 46.108 243 43.0001C246.108 39.8921 249.798 37.4268 253.858 35.7448C257.919 34.0627 262.271 33.197 266.667 33.197C271.062 33.197 275.414 34.0627 279.475 35.7448C283.536 37.4268 287.225 39.8921 290.333 43.0001L323.667 76.3334C326.756 79.4481 329.2 83.1419 330.859 87.2032C332.518 91.2644 333.359 95.6132 333.333 100V200C333.333 208.841 329.821 217.319 323.57 223.57C317.319 229.822 308.841 233.333 300 233.333Z" fill="white"/>
</svg>
